<svg xmlns="http://www.w3.org/2000/svg" fill="none" viewBox="0 0 27 24"><path fill="#cea350" fill-rule="evenodd" d="M13.437 2.774c.293-.36-7.39 13.975-10.188 11.129-1.003-1.018-1.656-1.685-1.656-1.685A7.53 7.53 0 0 1 0 7.573C0 3.393 3.398 0 7.578 0a7.57 7.57 0 0 1 5.86 2.769z" clip-rule="evenodd"/><path fill="#391609" fill-rule="evenodd" d="m.681 4.434 6.407 6.354-3.997 2.952-1.498-1.522A7.53 7.53 0 0 1 0 7.573c0-1.118.245-2.184.681-3.139M4.324.739A7.56 7.56 0 0 1 7.578.005a7.57 7.57 0 0 1 5.86 2.769c.21-.26-2.141 4.88-2.141 4.88zM19.297.005a7.577 7.577 0 0 1 7.578 7.573c0 1.751-16.605 13.466-16.605 13.466l-4.78-4.857S17.397.005 19.297.005" clip-rule="evenodd"/><path fill="#cea350" fill-rule="evenodd" d="M26.164 4.372c.456.974.71 2.059.71 3.206a7.53 7.53 0 0 1-1.593 4.645s-9.41 9.589-11.455 11.619a.553.553 0 0 1-.777 0c-.59-.59-1.805-1.814-3.23-3.259zM6.32 17.032a1381 1381 0 0 1-3.599-3.662l11.6-11.508A7.56 7.56 0 0 1 19.291.005c1.22 0 2.366.288 3.388.796z" clip-rule="evenodd"/></svg>